<?xml version="1.0" encoding="UTF-8"?>
<svg id="_레이어_1" data-name="레이어_1" xmlns="http://www.w3.org/2000/svg" version="1.1" viewBox="0 0 67.1 65.8">
  <!-- Generator: Adobe Illustrator 29.0.0, SVG Export Plug-In . SVG Version: 2.1.0 Build 186)  -->
  <defs>
    <style>
      .st0 {
        fill: #0b080b;
      }

      .st1 {
        fill: #b3d1dd;
        font-family: Philosopher-Bold, Philosopher;
        font-size: 10.4px;
        font-weight: 700;
      }

      .st2 {
        fill: #b7d8e5;
      }
    </style>
  </defs>
  <rect class="st0" x="3.9" y="2.7" width="59.9" height="59.9" rx="10.1" ry="10.1"/>
  <g>
    <path class="st2" d="M37.1,20.9s0,0,0,.1c0,.5-.1.9-.3,1.3-.3.5-.7.9-1.3,1.2-.5.2-1,.4-1.6.4h-.8c-.4,0-.6.2-.7.5,0,.2,0,.4,0,.6,0,0,0,0,0,0,.1.2.3.3.7.3h.8c.6,0,1.2-.1,1.8-.3.6-.2,1.2-.6,1.6-1,.4-.3.7-.8.9-1.2.2-.4.4-.9.4-1.4,0-.1,0-.3,0-.4,0-2.4-2.2-4.3-4.9-4.3s-4.9,1.9-4.9,4.3v7.4s0,0,0,0v11.5c0,1,1.6,1,1.6,0v-9.6s0,0,0,0v-9.4s0,0,0-.1c0-1.5,1.5-2.8,3.2-2.8s3.1,1.2,3.2,2.8Z"/>
    <path class="st2" d="M33.9,10.9c-6.3,0-11.4,4.5-11.4,10.1v19c0,1,1.6,1,1.6,0v-19c0-4.8,4.4-8.7,9.7-8.7s9.7,3.9,9.7,8.7-.3,2.3-.8,3.4c-.2.5-.5,1-.9,1.4-.3.4-.7.8-1.1,1.2-.4.4-.8.7-1.3,1-.4.3-.9.5-1.4.8-.5.2-1,.4-1.5.6-.9.3-1.9.4-2.9.4h-.8c-1.1,0-1.1,1.4,0,1.4h.8c1.1,0,2.2-.2,3.2-.4.6-.1,1.1-.3,1.6-.6.5-.2,1-.5,1.5-.8.5-.3,1-.6,1.4-1,.4-.4.9-.8,1.2-1.2.4-.4.7-.9,1-1.4.9-1.4,1.3-3.1,1.3-4.8,0-5.6-5.1-10.1-11.4-10.1Z"/>
    <path class="st2" d="M27.4,28.9v-2.7s0,0,0,0v-2.1s0-1.8,0-1.8v-1.3c0-3.2,2.9-5.8,6.5-5.8s6.5,2.6,6.5,5.8,0,.8-.1,1.2c-.1.5-.3,1-.6,1.4-.2.4-.6.8-.9,1.2-.4.4-.8.7-1.2,1-.6.3-1.2.6-1.8.8-.6.2-1.2.2-1.8.2h-.8c-.8,0-1,.8-.6,1.2.1.1.3.2.6.2h.8c.6,0,1.1,0,1.6-.1.6-.1,1.3-.3,1.8-.6.5-.2,1-.5,1.4-.8.4-.3.8-.6,1.2-1,.4-.4.7-.8,1-1.2.3-.4.5-.9.7-1.4.2-.7.4-1.4.4-2.2,0-4-3.6-7.2-8.1-7.2s-8.1,3.2-8.1,7.2h0v19c0,1,1.6,1,1.6,0v-1.5s0,0,0,0v-7.9s0-.2,0-.2c0,0,0,0,0,0v-1.4s0-.2,0-.2c0,0,0,0,0,0Z"/>
    <ellipse class="st2" cx="33.9" cy="21.2" rx="1.5" ry="1.3"/>
  </g>
  <text class="st1" transform="translate(16.9 52.4)"><tspan x="0" y="0">PLOTIS</tspan></text>
</svg>