<?xml version="1.0" encoding="UTF-8"?>
<svg id="_레이어_1" xmlns="http://www.w3.org/2000/svg" version="1.1" viewBox="0 0 11.6 14.8">
  <!-- Generator: Adobe Illustrator 29.0.0, SVG Export Plug-In . SVG Version: 2.1.0 Build 186)  -->
  <defs>
    <style>
      .st0 {
        fill: #7a98ca;
      }
    </style>
  </defs>
  <path class="st0" d="M7.33,5.219c.001.021.007.041.007.062,0,.204-.058.395-.153.566-.124.223-.317.408-.557.534-.209.109-.448.178-.707.18h-.376c-.177,0-.284.089-.328.2-.034.087-.031.186.014.27.004.007.009.012.014.019.055.087.151.153.3.153h.376c.28-.002.546-.053.79-.141.276-.1.524-.248.729-.434.17-.154.309-.335.413-.533.102-.194.169-.405.193-.628.006-.061.01-.122.01-.184,0-1.062-.963-1.921-2.153-1.921s-2.153.859-2.153,1.921v3.296s0,.001,0,.002v5.108c0,.424.719.424.719,0v-4.237s0,0,0,0v-4.168c0-.021.006-.041.007-.062.037-.678.658-1.218,1.427-1.218s1.39.54,1.427,1.218Z"/>
  <path class="st0" d="M5.903.795C3.126.795.875,2.804.875,5.281v8.406c0,.424.719.424.719,0V5.281c0-2.124,1.929-3.845,4.309-3.845s4.309,1.721,4.309,3.845c0,.53-.12,1.035-.338,1.494-.104.22-.231.428-.377.625-.141.19-.302.367-.478.532-.17.159-.355.304-.553.435-.193.128-.397.242-.613.34-.214.097-.436.182-.668.246-.405.112-.835.173-1.281.173h-.359c-.475,0-.475.641,0,.641h.359c.496,0,.974-.067,1.427-.186.247-.065.485-.149.715-.246.233-.098.458-.207.67-.335.218-.132.421-.282.613-.442.198-.165.38-.342.546-.533.171-.197.327-.404.46-.625.38-.631.596-1.352.596-2.119,0-2.478-2.251-4.486-5.027-4.486Z"/>
  <path class="st0" d="M3.031,6.658v-1.377c0-1.416,1.285-2.562,2.871-2.562s2.871,1.146,2.871,2.562c0,.178-.02.351-.059.519-.051.223-.138.435-.25.633-.109.193-.244.371-.401.532-.161.164-.344.312-.547.435-.244.148-.516.263-.807.339-.256.067-.527.104-.808.104h-.359c-.351,0-.441.349-.273.532.059.065.149.109.273.109h.359c.248,0,.49-.022.724-.065.285-.052.556-.138.812-.246.222-.094.431-.207.625-.338.192-.129.368-.275.527-.435.162-.164.306-.341.428-.532.126-.197.232-.406.309-.626.107-.303.165-.626.165-.961,0-1.77-1.607-3.204-3.59-3.204s-3.59,1.434-3.59,3.204v8.406c0,.424.719.424.719,0v-.675h0s0-3.494,0-3.494v-.069s0,0,0,0v-.675h0s0-1.173,0-1.173v-.943Z"/>
  <path class="st0" d="M5.913,5.929c.369,0,.668-.267.668-.596s-.299-.596-.668-.596-.668.267-.668.596.299.596.668.596Z"/>
</svg>