<?xml version="1.0" encoding="UTF-8"?>
<svg id="_레이어_1" data-name="레이어_1" xmlns="http://www.w3.org/2000/svg" version="1.1" viewBox="0 0 527.273 525.359">
  <!-- Generator: Adobe Illustrator 29.0.0, SVG Export Plug-In . SVG Version: 2.1.0 Build 186)  -->
  <defs>
    <style>
      .st0 {
        fill: #839dca;
      }

      .st1 {
        fill: #fff;
      }
    </style>
  </defs>
  <rect x="33.971" y="29.665" width="461.722" height="461.722" rx="10.076" ry="10.076"/>
  <g>
    <path class="st0" d="M289.677,169.84c.02.366.122.71.122,1.08,0,3.556-1.017,6.868-2.671,9.848-2.159,3.888-5.523,7.098-9.697,9.288-3.631,1.905-7.794,3.094-12.306,3.141l-6.545.002c-3.079,0-4.944,1.548-5.709,3.477-.598,1.508-.54,3.243.243,4.694.064.118.165.216.236.33.958,1.512,2.635,2.661,5.229,2.661l6.545-.003c4.868-.033,9.5-.917,13.756-2.453,4.807-1.735,9.123-4.315,12.695-7.562,2.957-2.688,5.378-5.832,7.188-9.286,1.769-3.378,2.951-7.049,3.365-10.93.112-1.056.18-2.124.18-3.206,0-18.485-16.765-33.442-37.477-33.442s-37.475,14.957-37.475,33.442v57.376c0,.012-.002.023-.002.035v88.915c0,7.383,12.508,7.383,12.508,0v-73.764s.002-.005.002-.008v-72.554c0-.37.102-.714.122-1.08.643-11.807,11.451-21.202,24.845-21.202s24.202,9.395,24.845,21.202Z"/>
    <path class="st0" d="M264.833,92.828c-48.33,0-87.513,34.963-87.513,78.092v146.326c0,7.383,12.511,7.383,12.511,0v-146.326c0-36.969,33.576-66.93,75.002-66.93s75.005,29.962,75.005,66.93c0,9.225-2.093,18.012-5.875,26.007-1.809,3.825-4.028,7.454-6.568,10.877-2.457,3.312-5.258,6.395-8.319,9.259-2.958,2.768-6.186,5.289-9.634,7.573-3.36,2.226-6.919,4.211-10.678,5.918-3.722,1.69-7.588,3.165-11.637,4.288-7.043,1.953-14.53,3.006-22.294,3.006h-6.252c-8.275,0-8.275,11.161,0,11.161h6.252c8.637,0,16.962-1.16,24.844-3.24,4.308-1.137,8.447-2.597,12.45-4.285,4.052-1.708,7.982-3.609,11.663-5.83,3.801-2.293,7.326-4.905,10.67-7.689,3.44-2.864,6.615-5.961,9.502-9.283,2.975-3.424,5.69-7.034,8.003-10.877,6.613-10.987,10.381-23.541,10.381-36.885,0-43.129-39.181-78.092-87.513-78.092Z"/>
    <path class="st0" d="M214.85,231.728v-20.416s-.001,0-.001,0v-16.424s-.002-14.247-.002-14.247v-9.722c0-24.647,22.369-44.604,49.986-44.604s49.985,19.957,49.985,44.604c0,3.096-.355,6.118-1.027,9.035-.896,3.889-2.4,7.571-4.349,11.018-1.896,3.353-4.244,6.458-6.987,9.259-2.804,2.863-5.982,5.426-9.515,7.573-4.254,2.585-8.987,4.577-14.045,5.898-4.464,1.165-9.174,1.819-14.062,1.819h-6.252c-6.112,0-7.677,6.074-4.76,9.258,1.032,1.126,2.597,1.906,4.76,1.906h6.252c4.318,0,8.533-.391,12.604-1.134,4.964-.907,9.676-2.394,14.135-4.283,3.865-1.637,7.504-3.611,10.883-5.891,3.334-2.25,6.404-4.783,9.169-7.573,2.82-2.847,5.325-5.938,7.453-9.258,2.198-3.429,4.035-7.066,5.384-10.902,1.857-5.28,2.866-10.896,2.866-16.724,0-30.808-27.969-55.769-62.493-55.769s-62.494,24.961-62.494,55.769v146.326c0,7.383,12.512,7.383,12.512,0v-11.743s0-.001,0-.002l-.003-60.819v-1.194c0-.005.003-.008.003-.013v-10.583s0-1.16,0-1.16c0,0,0-.001,0-.002Z"/>
    <ellipse class="st0" cx="265.014" cy="171.823" rx="11.625" ry="10.374"/>
  </g>
  <g>
    <path class="st1" d="M141.348,370.019c0-2.723-.372-4.739-1.121-6.048s-2.242-1.963-4.487-1.963h-.801v-2.4h22.033c5.499,0,10.479,1.076,14.94,3.242,4.457,2.159,6.687,6.447,6.687,12.856,0,4.167-1.162,7.395-3.483,9.696-2.324,2.294-4.927,3.814-7.812,4.566-2.885.745-5.529,1.121-7.932,1.121h-7.609v21.386h-10.415v-42.457ZM156.57,387.885c3.152,0,5.74-.963,7.771-2.889,2.027-1.918,3.043-5.153,3.043-9.689,0-4.491-1-7.695-3.001-9.614-2.005-1.926-4.476-2.881-7.41-2.881-1.55,0-2.753.105-3.607.316l-1.602.241v24.516h4.807Z"/>
    <path class="st1" d="M187.57,370.019c0-2.723-.372-4.739-1.121-6.048s-2.242-1.963-4.487-1.963h-.801v-2.4h9.614c1.922,0,3.393.316,4.408.955,1.012.647,1.734,1.7,2.163,3.167.425,1.467.639,3.566.639,6.289v38.853h27.637v3.603h-38.052v-42.457Z"/>
    <path class="st1" d="M237.44,410.392c-4.036-2.452-7.146-5.822-9.335-10.095-2.189-4.273-3.284-9.019-3.284-14.255s1.095-9.99,3.284-14.263,5.3-7.635,9.335-10.095c4.028-2.452,8.636-3.678,13.815-3.678s9.775,1.226,13.781,3.678c4.006,2.46,7.101,5.822,9.29,10.095s3.287,9.027,3.287,14.263-1.098,9.982-3.287,14.255-5.285,7.643-9.29,10.095c-4.006,2.46-8.598,3.686-13.781,3.686s-9.787-1.226-13.815-3.686ZM262.554,404.103c2.667-4.243,4.002-10.268,4.002-18.061s-1.335-13.819-4.002-18.069c-2.674-4.243-6.439-6.364-11.299-6.364s-8.609,2.121-11.254,6.364c-2.644,4.25-3.964,10.268-3.964,18.069s1.32,13.819,3.964,18.061c2.644,4.25,6.394,6.372,11.254,6.372s8.624-2.121,11.299-6.372Z"/>
    <path class="st1" d="M299.158,363.211h-5.687c-2.99,0-5.273.745-6.849,2.242s-2.362,3.949-2.362,7.372h-2.403v-6.815c0-4.265,2.268-6.402,6.808-6.402h37.65v3.603h-16.741v49.265h-10.415v-49.265Z"/>
    <path class="st1" d="M335.77,411.558c-1.016-.617-1.738-1.655-2.163-3.129-.429-1.467-.639-3.588-.639-6.364v-42.457h10.411v42.457c0,2.723.376,4.739,1.125,6.048.745,1.309,2.242,1.963,4.483,1.963h.801v2.4h-9.614c-1.922,0-3.389-.308-4.404-.918Z"/>
    <path class="st1" d="M364.205,412.679c-2.776-.775-5.048-1.896-6.808-3.37-1.764-1.467-2.644-3.159-2.644-5.085v-9.373h2.242c.801,5.446,2.486,9.373,5.048,11.78,2.565,2.4,6.142,3.603,10.735,3.603,3.095,0,5.555-.669,7.372-2.001,1.813-1.339,2.723-3.257,2.723-5.77,0-2.136-.669-3.949-2.005-5.446s-3.419-3.129-6.247-4.89l-9.854-5.928c-3.577-2.084-6.127-4.243-7.65-6.492-1.52-2.242-2.283-4.852-2.283-7.846,0-4.22,1.617-7.56,4.848-10.012,3.231-2.46,7.598-3.686,13.097-3.686,2.99,0,5.875.384,8.651,1.158s5.048,1.896,6.812,3.37c1.76,1.467,2.644,3.159,2.644,5.085v9.373h-2.245c-.906-5.446-2.591-9.373-5.048-11.78-2.456-2.4-5.766-3.603-9.933-3.603-2.881,0-5.164.692-6.849,2.084-1.681,1.392-2.52,3.287-2.52,5.687,0,2.084.651,3.806,1.96,5.168s3.434,2.896,6.372,4.604l9.851,5.852c3.739,2.189,6.42,4.31,8.053,6.364,1.629,2.061,2.441,4.529,2.441,7.41,0,4.649-1.749,8.29-5.247,10.938-3.498,2.64-8.451,3.964-14.861,3.964-2.99,0-5.875-.391-8.651-1.158Z"/>
  </g>
</svg>