<?xml version="1.0" encoding="UTF-8"?>
<svg id="_레이어_1" xmlns="http://www.w3.org/2000/svg" version="1.1" viewBox="0 0 141.7 141.7">
  <!-- Generator: Adobe Illustrator 29.0.0, SVG Export Plug-In . SVG Version: 2.1.0 Build 186)  -->
  <defs>
    <style>
      .st0 {
        fill: none;
        stroke: #222120;
        stroke-linecap: round;
        stroke-linejoin: round;
        stroke-width: 8.5px;
      }
    </style>
  </defs>
  <path class="st0" d="M16.2,30.8c0-5.5,4.5-10,10-10"/>
  <path class="st0" d="M126.2,30.8c0-5.5-4.5-10-10-10"/>
  <path class="st0" d="M126.2,90.8c0,5.5-4.5,10-10,10"/>
  <path class="st0" d="M16.2,90.8c0,5.5,4.5,10,10,10"/>
  <line class="st0" x1="16.2" y1="30.8" x2="16.2" y2="90.8"/>
  <line class="st0" x1="126.2" y1="30.8" x2="126.2" y2="90.8"/>
  <line class="st0" x1="116.2" y1="100.8" x2="26.2" y2="100.8"/>
  <line class="st0" x1="26.2" y1="20.8" x2="116.2" y2="20.8"/>
  <line class="st0" x1="51.2" y1="100.8" x2="46.2" y2="120.8"/>
  <line class="st0" x1="91.2" y1="100.8" x2="96.2" y2="120.8"/>
  <line class="st0" x1="46.2" y1="120.8" x2="96.2" y2="120.8"/>
  <polyline class="st0" points="91.2 48.3 66.2 73.3 51.2 58.3"/>
</svg>