<?xml version="1.0" encoding="UTF-8"?>
<svg id="_레이어_1" xmlns="http://www.w3.org/2000/svg" version="1.1" viewBox="0 0 141.7 141.7">
  <!-- Generator: Adobe Illustrator 29.0.0, SVG Export Plug-In . SVG Version: 2.1.0 Build 186)  -->
  <defs>
    <style>
      .st0 {
        fill: none;
        stroke: #222120;
        stroke-linecap: round;
        stroke-linejoin: round;
        stroke-width: 8.5px;
      }
    </style>
  </defs>
  <line class="st0" x1="16.2" y1="30.8" x2="126.2" y2="30.8"/>
  <line class="st0" x1="36.2" y1="30.8" x2="36.2" y2="110.8"/>
  <line class="st0" x1="16.2" y1="50.8" x2="36.2" y2="50.8"/>
  <line class="st0" x1="16.2" y1="70.8" x2="36.2" y2="70.8"/>
  <line class="st0" x1="16.2" y1="90.8" x2="36.2" y2="90.8"/>
  <line class="st0" x1="16.2" y1="110.8" x2="126.2" y2="110.8"/>
  <line class="st0" x1="16.2" y1="30.8" x2="16.2" y2="110.8"/>
  <line class="st0" x1="126.2" y1="30.8" x2="126.2" y2="110.8"/>
  <line class="st0" x1="106.2" y1="30.8" x2="106.2" y2="110.8"/>
  <line class="st0" x1="126.2" y1="50.8" x2="106.2" y2="50.8"/>
  <line class="st0" x1="126.2" y1="70.8" x2="106.2" y2="70.8"/>
  <line class="st0" x1="126.2" y1="90.8" x2="106.2" y2="90.8"/>
  <line class="st0" x1="58.7" y1="52.8" x2="58.7" y2="88.8"/>
  <line class="st0" x1="88.7" y1="70.8" x2="58.7" y2="88.8"/>
  <line class="st0" x1="58.7" y1="52.8" x2="88.7" y2="70.8"/>
</svg>