<?xml version="1.0" encoding="UTF-8"?>
<svg id="_레이어_1" xmlns="http://www.w3.org/2000/svg" version="1.1" viewBox="0 0 141.7 141.7">
  <!-- Generator: Adobe Illustrator 29.0.0, SVG Export Plug-In . SVG Version: 2.1.0 Build 186)  -->
  <defs>
    <style>
      .st0 {
        fill: none;
        stroke: #222221;
        stroke-linecap: round;
        stroke-linejoin: round;
        stroke-width: 8.5px;
      }
    </style>
  </defs>
  <path class="st0" d="M15.9,111.1c0,5.5,4.5,10,10,10"/>
  <path class="st0" d="M125.9,111.1c0,5.5-4.5,10-10,10"/>
  <line class="st0" x1="25.9" y1="121.1" x2="115.9" y2="121.1"/>
  <line class="st0" x1="15.9" y1="111.1" x2="15.9" y2="31.1"/>
  <line class="st0" x1="125.9" y1="111.1" x2="125.9" y2="31.1"/>
  <line class="st0" x1="15.9" y1="31.1" x2="125.9" y2="31.1"/>
  <line class="st0" x1="40.9" y1="21.1" x2="40.9" y2="41.1"/>
  <line class="st0" x1="60.9" y1="21.1" x2="60.9" y2="41.1"/>
  <line class="st0" x1="80.9" y1="21.1" x2="80.9" y2="41.1"/>
  <line class="st0" x1="100.9" y1="21.1" x2="100.9" y2="41.1"/>
  <line class="st0" x1="125.9" y1="61.1" x2="15.9" y2="61.1"/>
  <line class="st0" x1="40.9" y1="81.1" x2="40.9" y2="81.1"/>
  <line class="st0" x1="60.9" y1="81.1" x2="60.9" y2="81.1"/>
  <line class="st0" x1="80.9" y1="81.1" x2="80.9" y2="81.1"/>
  <line class="st0" x1="100.9" y1="81.1" x2="100.9" y2="81.1"/>
  <line class="st0" x1="40.9" y1="101.1" x2="40.9" y2="101.1"/>
  <line class="st0" x1="60.9" y1="101.1" x2="60.9" y2="101.1"/>
  <line class="st0" x1="80.9" y1="101.1" x2="80.9" y2="101.1"/>
  <line class="st0" x1="100.9" y1="101.1" x2="100.9" y2="101.1"/>
</svg>