<?xml version="1.0" encoding="UTF-8"?>
<svg id="_레이어_1" xmlns="http://www.w3.org/2000/svg" version="1.1" viewBox="0 0 141.7 141.7">
  <!-- Generator: Adobe Illustrator 29.0.0, SVG Export Plug-In . SVG Version: 2.1.0 Build 186)  -->
  <defs>
    <style>
      .st0 {
        fill: none;
        stroke: #222120;
        stroke-linecap: round;
        stroke-linejoin: round;
        stroke-width: 8.5px;
      }
    </style>
  </defs>
  <line class="st0" x1="107.1" y1="21.1" x2="127.1" y2="41.1"/>
  <line class="st0" x1="92.1" y1="36.1" x2="112.1" y2="56.1"/>
  <line class="st0" x1="37.1" y1="111.1" x2="47.1" y2="81.1"/>
  <line class="st0" x1="67.1" y1="101.1" x2="37.1" y2="111.1"/>
  <line class="st0" x1="107.1" y1="21.1" x2="47.1" y2="81.1"/>
  <line class="st0" x1="127.1" y1="41.1" x2="67.1" y2="101.1"/>
  <path class="st0" d="M17.1,121.1c0,5.5,4.5,10,10,10"/>
  <path class="st0" d="M127.1,121.1c0,5.5-4.5,10-10,10"/>
  <path class="st0" d="M17.1,31.1c0-5.5,4.5-10,10-10"/>
  <line class="st0" x1="117.1" y1="131.1" x2="27.1" y2="131.1"/>
  <line class="st0" x1="17.1" y1="31.1" x2="17.1" y2="121.1"/>
  <line class="st0" x1="127.1" y1="121.1" x2="127.1" y2="71.1"/>
  <line class="st0" x1="77.1" y1="21.1" x2="27.1" y2="21.1"/>
</svg>