<?xml version="1.0" encoding="UTF-8"?>
<svg id="_레이어_1" xmlns="http://www.w3.org/2000/svg" version="1.1" viewBox="0 0 141.7 141.7">
  <!-- Generator: Adobe Illustrator 29.0.0, SVG Export Plug-In . SVG Version: 2.1.0 Build 186)  -->
  <defs>
    <style>
      .st0 {
        fill: none;
        stroke: #222120;
        stroke-linecap: round;
        stroke-linejoin: round;
        stroke-width: 8.5px;
      }
    </style>
  </defs>
  <path class="st0" d="M16.2,45.8c0-5.5,4.5-10,10-10"/>
  <path class="st0" d="M16.2,95.8c0,5.5,4.5,10,10,10"/>
  <path class="st0" d="M96.2,45.8c0-5.5-4.5-10-10-10"/>
  <path class="st0" d="M96.2,95.8c0,5.5-4.5,10-10,10"/>
  <line class="st0" x1="26.2" y1="35.8" x2="86.2" y2="35.8"/>
  <line class="st0" x1="96.2" y1="45.8" x2="96.2" y2="95.8"/>
  <line class="st0" x1="86.2" y1="105.8" x2="26.2" y2="105.8"/>
  <line class="st0" x1="16.2" y1="45.8" x2="16.2" y2="95.8"/>
  <line class="st0" x1="126.2" y1="40.8" x2="96.2" y2="55.8"/>
  <line class="st0" x1="96.2" y1="85.8" x2="126.2" y2="100.8"/>
  <line class="st0" x1="126.2" y1="40.8" x2="126.2" y2="100.8"/>
</svg>